<?xml version="1.0" encoding="UTF-8"?>
<svg width="191px" height="192px" viewBox="0 0 191 192" version="1.1" xmlns="http://www.w3.org/2000/svg" xmlns:xlink="http://www.w3.org/1999/xlink">
    <title>whatsapp</title>
    <defs>
        <filter id="filter-1">
            <feColorMatrix in="SourceGraphic" type="matrix" values="0 0 0 0 0.431373 0 0 0 0 0.431373 0 0 0 0 0.431373 0 0 0 1.000000 0"></feColorMatrix>
        </filter>
    </defs>
    <g id="Page-1" stroke="none" stroke-width="1" fill="none" fill-rule="evenodd">
        <g id="whatsapp" transform="translate(-1622.000000, -636.000000)" filter="url(#filter-1)">
            <g transform="translate(1622.000000, 636.000000)">
                <path d="M163.171589,27.9023436 C145.216729,9.91875 121.338217,0.01054686 95.8994309,0 C43.4803282,0 0.81879232,42.6785157 0.797707391,95.1339843 C0.790679281,111.902344 5.16928487,128.271094 13.4919158,142.699219 L0,192 L50.4148776,178.769531 C64.3062325,186.350391 79.9452816,190.345312 95.8607756,190.35 L95.9006025,190.35 C148.313848,190.35 190.98007,147.667969 191,95.2101564 C191.010525,69.7875 181.127621,45.8847657 163.171589,27.9023436 Z M95.8994309,174.282422 L95.8666324,174.282422 C81.6836045,174.276563 67.7735073,170.463281 55.6357031,163.259766 L52.7506024,161.545313 L22.833644,169.396875 L30.8189185,140.216016 L28.9388589,137.224219 C21.0262101,124.633594 16.8479097,110.08125 16.854929,95.1398436 C16.8713373,51.5402343 52.3312498,16.06875 95.9310582,16.06875 C117.04395,16.0757814 136.890584,24.3117186 151.813922,39.2589843 C166.73726,54.20625 174.950952,74.0742186 174.943929,95.2042968 C174.925182,138.807422 139.467612,174.282422 95.8994309,174.282422 L95.8994309,174.282422 Z M139.256765,115.057031 C136.881213,113.866406 125.197902,108.117188 123.019142,107.322656 C120.842724,106.529297 119.25668,106.134375 117.674151,108.513281 C116.089278,110.892188 111.536137,116.247656 110.149227,117.833203 C108.762317,119.419922 107.37775,119.619141 105.001027,118.428516 C102.624304,117.239063 94.9681865,114.727734 85.8911892,106.628906 C78.8277885,100.325391 74.0591143,92.540625 72.6722044,90.1617186 C71.2876371,87.7804686 72.6604908,86.6179686 73.7147294,85.3101564 C76.2870727,82.1144532 78.8629296,78.7640625 79.6547802,77.1785157 C80.4478024,75.5917968 80.0507057,74.203125 79.4556463,73.0136718 C78.8629296,71.8242186 74.1106548,60.1230468 72.1310282,55.3617186 C70.2005996,50.728125 68.2432295,51.3539064 66.7836941,51.28125 C65.3991271,51.2121093 63.8142547,51.1980468 62.2293819,51.1980468 C60.6456807,51.1980468 58.0709951,51.7921875 55.8922346,54.1734375 C53.7146454,56.5535157 47.5766321,62.3039064 47.5766321,74.0050782 C47.5766321,85.70625 56.0913685,97.0101564 57.2791445,98.596875 C58.4669202,100.183594 74.0356867,124.195313 97.8720291,134.491406 C103.541492,136.942969 107.966953,138.404297 111.419,139.5 C117.11189,141.309375 122.290546,141.053906 126.385679,140.442188 C130.951704,139.758984 140.443369,134.690625 142.425338,129.138281 C144.404965,123.584766 144.404965,118.825781 143.809905,117.833203 C143.217189,116.841797 141.632316,116.247656 139.256765,115.057031 L139.256765,115.057031 Z" id="Shape" fill="#000000" fill-rule="nonzero"></path>
            </g>
        </g>
    </g>
</svg>