<?xml version="1.0" encoding="UTF-8"?>
<svg width="179px" height="179px" viewBox="0 0 179 179" version="1.1" xmlns="http://www.w3.org/2000/svg" xmlns:xlink="http://www.w3.org/1999/xlink">
    <title>instagram</title>
    <defs>
        <filter id="filter-1">
            <feColorMatrix in="SourceGraphic" type="matrix" values="0 0 0 0 0.431373 0 0 0 0 0.431373 0 0 0 0 0.431373 0 0 0 1.000000 0"></feColorMatrix>
        </filter>
    </defs>
    <g id="Page-1" stroke="none" stroke-width="1" fill="none" fill-rule="evenodd">
        <g id="instagram" transform="translate(-1394.000000, -643.000000)" filter="url(#filter-1)">
            <g transform="translate(1394.000000, 643.000000)">
                <path d="M123.0625,0 L55.9375,0 C25.0488125,0 0,25.0488125 0,55.9375 L0,123.0625 C0,153.951188 25.0488125,179 55.9375,179 L123.0625,179 C153.951188,179 179,153.951188 179,123.0625 L179,55.9375 C179,25.0488125 153.951188,0 123.0625,0 Z M162.21875,123.0625 C162.21875,144.654375 144.654375,162.21875 123.0625,162.21875 L55.9375,162.21875 C34.345625,162.21875 16.78125,144.654375 16.78125,123.0625 L16.78125,55.9375 C16.78125,34.345625 34.345625,16.78125 55.9375,16.78125 L123.0625,16.78125 C144.654375,16.78125 162.21875,34.345625 162.21875,55.9375 L162.21875,123.0625 Z" id="Shape" fill="#000000" fill-rule="nonzero"></path>
                <path d="M89.5,44.75 C64.7868125,44.75 44.75,64.7868125 44.75,89.5 C44.75,114.213187 64.7868125,134.25 89.5,134.25 C114.213187,134.25 134.25,114.213187 134.25,89.5 C134.25,64.7868125 114.213187,44.75 89.5,44.75 Z M89.5,117.46875 C74.083625,117.46875 61.53125,104.916375 61.53125,89.5 C61.53125,74.0724375 74.083625,61.53125 89.5,61.53125 C104.916375,61.53125 117.46875,74.0724375 117.46875,89.5 C117.46875,104.916375 104.916375,117.46875 89.5,117.46875 Z" id="Shape" fill="#000000" fill-rule="nonzero"></path>
                <circle id="Oval" fill="#000000" fill-rule="nonzero" cx="137.60625" cy="41.39375" r="5.9629375"></circle>
            </g>
        </g>
    </g>
</svg>